<svg xmlns="http://www.w3.org/2000/svg" width="44" height="44"><g fill="#FFF" fill-rule="nonzero"><path d="M23.1 18.37l-6.3-4.51-.1-.07a4.32 4.32 0 0 0-6.6 3.68v9.08a4.32 4.32 0 0 0 6.6 3.68l.1-.07 6.3-4.51a4.31 4.31 0 0 0 0-7.28zm-2.16 3.91l-.11.07-6.3 4.49a.3.3 0 0 1-.44-.28v-9.1a.3.3 0 0 1 .16-.28h.16a.24.24 0 0 1 .13 0l6.29 4.49.1.07h.01c.09.06.14.16.14.26s-.05.21-.14.27v.01z"/><path d="M22 0A21.98 21.98 0 0 0 0 22a21.98 21.98 0 0 0 22 22 21.98 21.98 0 0 0 22-22A21.98 21.98 0 0 0 22 0zm0 40A17.99 17.99 0 0 1 9.27 9.27 17.98 17.98 0 0 1 40 22a17.99 17.99 0 0 1-18 18z"/><path d="M30.5 13.58a2 2 0 0 0-2 2v12.84a2 2 0 1 0 4 0V15.58a2 2 0 0 0-2-2z"/></g></svg>